<svg width="40" height="41" viewBox="0 0 40 41" fill="none" xmlns="http://www.w3.org/2000/svg">
<g clip-path="url(#clip0_17607_18007)">
<rect x="9" y="7" width="26" height="26" rx="2.5" fill="#98A1A3"/>
<path fill-rule="evenodd" clip-rule="evenodd" d="M20.1798 28.1319C18.5375 28.1319 17.7743 27.8919 16.4477 26.932C15.6086 28.0119 12.9515 28.8559 12.8356 27.412C12.8356 26.328 12.5958 25.4121 12.3241 24.4121C12.0005 23.1802 11.6329 21.8083 11.6329 19.8204C11.6329 15.0727 15.5247 11.501 20.1358 11.501C24.7509 11.501 28.3671 15.2487 28.3671 19.8644C28.3826 24.4088 24.7195 28.1077 20.1798 28.1319ZM20.2477 15.6047C18.0021 15.4887 16.252 17.0446 15.8644 19.4845C15.5447 21.5043 16.1121 23.9642 16.5956 24.0922C16.8273 24.1482 17.4107 23.6762 17.7743 23.3122C18.3756 23.728 19.0757 23.9777 19.8042 24.0362C22.131 24.1482 24.1192 22.375 24.2754 20.0484C24.3664 17.7169 22.5749 15.7421 20.2477 15.6087L20.2477 15.6047Z" fill="white"/>
</g>
<defs>
<clipPath id="clip0_17607_18007">
<rect width="22" height="22" fill="white" transform="translate(9 9)"/>
</clipPath>
</defs>
</svg>
