<svg width="40" height="41" viewBox="0 0 40 41" fill="none" xmlns="http://www.w3.org/2000/svg">
<path d="M20 10.0322C14.5 10.0322 10 14.5322 10 20.0322C10 24.1572 12.5 27.6572 16 29.1572C16 28.4072 16 27.6572 16.125 26.9072C16.375 26.0322 17.375 21.4072 17.375 21.4072C17.375 21.4072 17 20.7822 17 19.7822C17 18.2822 17.875 17.1572 18.875 17.1572C19.75 17.1572 20.25 17.7822 20.25 18.6572C20.25 19.5322 19.625 20.9072 19.375 22.1572C19.125 23.1572 19.875 24.0322 21 24.0322C22.875 24.0322 24.125 21.6572 24.125 18.6572C24.125 16.4072 22.625 14.7822 20 14.7822C17 14.7822 15.125 17.0322 15.125 19.5322C15.125 20.4072 15.375 21.0322 15.75 21.5322C15.875 21.7822 16 21.7822 15.875 22.0322C15.875 22.1572 15.75 22.6572 15.625 22.7822C15.5 23.0322 15.375 23.1572 15.125 23.0322C13.75 22.4072 13.125 20.9072 13.125 19.1572C13.125 16.2822 15.5 12.9072 20.25 12.9072C24.125 12.9072 26.625 15.6572 26.625 18.6572C26.625 22.5322 24.5 25.5322 21.25 25.5322C20.125 25.5322 19.125 24.9072 18.75 24.2822C18.75 24.2822 18.125 26.5322 18 27.0322C17.75 27.7822 17.375 28.5322 17 29.1572C17.875 29.4072 18.875 29.5322 19.875 29.5322C25.375 29.5322 29.875 25.0322 29.875 19.5322C30 14.5322 25.5 10.0322 20 10.0322Z" fill="#98A1A3"/>
</svg>
