<svg width="40" height="41" viewBox="0 0 40 41" fill="none" xmlns="http://www.w3.org/2000/svg">
<path d="M20.9825 27.0322C13.466 27.0322 9.17864 21.777 9 13.0322H12.7651C12.8888 19.4506 15.6646 22.1694 17.8632 22.7299V13.0322H21.4085V18.5678C23.5796 18.3295 25.8607 15.807 26.6302 13.0322H30.1755C29.8855 14.4713 29.3075 15.8339 28.4776 17.0347C27.6477 18.2356 26.5837 19.2489 25.3523 20.0112C26.7269 20.7078 27.941 21.6937 28.9145 22.904C29.888 24.1142 30.5988 25.5213 31 27.0322H27.0974C26.7373 25.7198 26.0054 24.545 24.9934 23.6551C23.9814 22.7651 22.7343 22.1995 21.4085 22.0292V27.0322H20.9825Z" fill="#98A1A3"/>
</svg>
