<svg width="20" height="20" viewBox="0 0 20 20" fill="none" xmlns="http://www.w3.org/2000/svg">
<g clip-path="url(#clip0_18745_17765)">
<path d="M0 9.6C0 5.075 0 2.81188 1.40625 1.40625C2.8125 0.000624955 5.075 0 9.6 0H10.4C14.925 0 17.1881 0 18.5938 1.40625C19.9994 2.8125 20 5.075 20 9.6V10.4C20 14.925 20 17.1881 18.5938 18.5938C17.1875 19.9994 14.925 20 10.4 20H9.6C5.075 20 2.81188 20 1.40625 18.5938C0.000624955 17.1875 0 14.925 0 10.4V9.6Z" fill="#BCD09D"/>
<path d="M10.6825 14.5831C6.16995 14.5831 3.43245 11.4525 3.32495 6.25H5.61058C5.68183 10.0719 7.41995 11.6913 8.75308 12.0244V6.25H10.9431V9.54813C12.2287 9.40563 13.5743 7.90562 14.0268 6.25H16.1831C15.8375 8.28562 14.3725 9.78562 13.3375 10.4044C14.3737 10.905 16.04 12.2144 16.6831 14.5831H14.3137C13.8137 13 12.5875 11.7737 10.9443 11.6069V14.5831H10.6825Z" fill="white"/>
</g>
<defs>
<clipPath id="clip0_18745_17765">
<rect width="20" height="20" fill="white"/>
</clipPath>
</defs>
</svg>
