<svg width="83" height="17" viewBox="0 0 83 17" fill="none" xmlns="http://www.w3.org/2000/svg">
<g clip-path="url(#clip0_17136_17999)">
<path fill-rule="evenodd" clip-rule="evenodd" d="M82.6068 5.25372C82.6068 2.79916 80.4301 0.824028 76.014 0.824028C71.314 0.824028 68.8968 3.34289 68.8968 6.45554H73.2132C73.2132 4.83901 74.1525 3.99623 75.9511 3.99623C77.6544 3.99623 78.3792 4.58268 78.3792 5.51048C78.3792 6.43785 77.843 7.06961 76.5187 7.06961L74.0769 7.07134V9.73174L76.4549 9.73001C77.9697 9.73001 78.6006 10.3588 78.6006 11.3763C78.6006 12.3339 77.9382 13.244 76.014 13.244C73.9321 13.244 72.9859 12.2269 72.9859 10.5508H68.6809C68.6809 14.3517 71.4721 16.3868 76.014 16.3868C80.4925 16.3868 82.9849 14.5908 82.9849 11.7177C82.9849 10.2215 82.1649 9.14399 80.5877 8.51568C81.9439 7.82738 82.6063 6.57033 82.6063 5.25329L82.6068 5.25372ZM61.7829 15.9825H66.2127V1.22881H61.7829V2.84274C60.6417 1.48341 59.1374 0.925438 57.502 0.925438C53.3391 0.925438 50.0236 3.99709 50.0236 8.60544C50.0236 13.2138 53.3391 16.2854 57.502 16.2854C59.1374 16.2854 60.6417 15.727 61.7829 14.3681V15.9825ZM62.0913 8.60544C62.0913 10.9392 60.2672 12.6476 58.0824 12.6476C55.9294 12.6476 54.0739 10.9392 54.0739 8.60544C54.0739 6.27171 55.9294 4.56327 58.0828 4.56327C60.2672 4.56327 62.0913 6.27171 62.0913 8.60544ZM42.5525 4.76911H48.9895V1.22837H38.1254V15.9825H42.5529L42.5525 4.76911ZM35.9387 8.60544C35.9387 4.19646 32.2077 0.62207 27.6057 0.62207C23.0032 0.62207 19.2727 4.19646 19.2727 8.60544C19.2727 13.0144 23.0037 16.5888 27.6057 16.5888C32.2082 16.5888 35.9387 13.0144 35.9387 8.60544ZM32.3499 9.36925C29.7956 9.9501 28.0166 12.0318 27.6057 15.3848C27.1948 12.0318 25.4159 9.9501 22.8616 9.36925C22.4224 6.74467 24.8409 4.44934 27.6057 4.44546C30.3705 4.44934 32.789 6.74467 32.3499 9.36925ZM5.03202 8.60544C5.03202 6.21043 6.71985 4.2599 9.14569 4.2599C11.0094 4.2599 12.5564 5.23689 12.9432 6.68511H17.1626C16.9439 3.3252 13.7404 0.62207 9.24317 0.62207C4.53182 0.62207 0.984863 3.90906 0.984863 8.60673C0.984863 13.3048 4.53182 16.5888 9.24317 16.5888C13.8192 16.5888 17.0532 13.8982 17.1626 10.2224H12.9432C12.6143 11.9028 11.1501 12.9505 9.14614 12.9505C6.93077 12.9505 5.03202 11.0622 5.03202 8.60544Z" fill="#000078"/>
</g>
<defs>
<clipPath id="clip0_17136_17999">
<rect width="82" height="16" fill="white" transform="translate(0.984863 0.5)"/>
</clipPath>
</defs>
</svg>
