<svg width="133" height="13" viewBox="0 0 133 13" fill="none" xmlns="http://www.w3.org/2000/svg">
<g clip-path="url(#clip0_17136_18025)">
<path d="M17.5067 12.3768C15.3937 8.46902 13.2808 4.56124 11.1678 0.653455C11.0651 0.466628 10.9477 0.419922 10.757 0.419922C9.58313 0.419922 8.40928 0.419922 7.23542 0.419922C7.03 0.419922 6.91261 0.482197 6.8099 0.684593C5.41595 3.53369 4.02199 6.39837 2.61337 9.24747C2.07046 10.3373 1.52755 11.4427 0.969971 12.5325V12.6103C1.60092 12.6103 2.21719 12.6103 2.84814 12.6259C3.08291 12.6259 3.18562 12.5481 3.28833 12.3301C3.75788 11.3493 4.25676 10.3684 4.72631 9.37202C4.81435 9.18519 4.91706 9.10735 5.10781 9.10735C6.94196 9.10735 8.77611 9.10735 10.6103 9.10735C10.801 9.10735 10.889 9.16962 10.9771 9.34088C11.5053 10.3529 12.0482 11.3493 12.5765 12.3612C12.6792 12.5481 12.7819 12.6103 12.9726 12.6103C14.4253 12.6103 15.8633 12.6103 17.3159 12.6103C17.3893 12.6103 17.4626 12.6103 17.536 12.6103C17.5653 12.5169 17.5067 12.4547 17.4773 12.3924L17.5067 12.3768ZM5.68006 7.41034C6.35503 6.00914 7.03 4.62351 7.73431 3.16004C8.49732 4.60795 9.2163 5.99357 9.96463 7.41034H5.68006Z" fill="#444444"/>
<path d="M87.3366 3.72096C86.5736 2.86467 85.5905 2.38204 84.5341 2.1018C83.2722 1.75928 81.9809 1.6503 80.675 1.68144C80.3962 1.68144 80.3229 1.60359 80.3522 1.32335C80.3669 0.965269 80.3522 0.591617 80.3522 0.233533C80.3522 0.0622755 80.3082 0 80.1468 0C78.8262 0 77.5056 0 76.185 0C75.9943 0 75.9649 0.0934132 75.9649 0.264671C75.9649 0.622755 75.9649 0.996407 75.9649 1.35449C75.9649 1.60359 75.9209 1.69701 75.6715 1.68144C74.8644 1.6503 74.0574 1.69701 73.2504 1.80599C71.9151 1.99281 70.6386 2.31976 69.5381 3.19162C67.6746 4.65509 67.3958 7.31737 68.9218 9.09222C69.6995 9.99521 70.7266 10.4623 71.8124 10.7581C73.0596 11.1162 74.3509 11.1629 75.6421 11.1784C75.9209 11.1784 75.9943 11.2719 75.9796 11.5521C75.9649 11.9257 75.9796 12.2994 75.9796 12.6731C75.9796 12.891 76.0236 12.9689 76.2437 12.9533C76.8747 12.9377 77.5203 12.9533 78.1512 12.9533C78.7822 12.9533 79.3838 12.9533 80 12.9533C80.2788 12.9533 80.4109 12.9066 80.3816 12.5641C80.3522 12.2216 80.3816 11.8635 80.3816 11.521C80.3669 11.2563 80.4256 11.1784 80.6897 11.1784C81.6288 11.1784 82.5825 11.1473 83.5069 10.976C84.6808 10.7581 85.8106 10.4311 86.7937 9.68383C88.7012 8.20479 88.9654 5.51138 87.366 3.70539L87.3366 3.72096ZM75.7448 9.62156C75.334 9.59042 74.9231 9.55928 74.5269 9.46587C73.0009 9.07665 72.2086 7.89341 72.3113 6.18084C72.414 4.42156 73.5585 3.36287 75.3927 3.3006C75.8622 3.27984 76.097 3.51856 76.097 4.01677V6.47665C76.097 7.41078 76.097 8.32934 76.097 9.26347C76.097 9.57485 76.0089 9.65269 75.7301 9.63713L75.7448 9.62156ZM83.9471 7.13054C83.7857 8.26707 83.1401 9.01437 82.0983 9.37245C81.5554 9.55928 81.0125 9.60599 80.4549 9.62156C80.2495 9.62156 80.2055 9.55928 80.2055 9.35689C80.2055 8.39162 80.2055 7.42635 80.2055 6.46108C80.2055 5.49581 80.2055 4.56168 80.2055 3.59641C80.2055 3.36287 80.2642 3.3006 80.4843 3.28503C81.4087 3.28503 82.2891 3.40958 83.0227 4.03234C83.9618 4.84192 84.1085 5.94731 83.9325 7.11497L83.9471 7.13054Z" fill="#444444"/>
<path d="M119.031 3.62729C118.341 2.53747 117.387 1.75902 116.258 1.24525C113.205 -0.155947 110.08 -0.264929 106.911 0.700341C105.531 1.1207 104.24 1.77459 103.272 2.92669C102.259 4.12549 101.716 5.52669 101.936 7.17699C102.186 9.04525 103.198 10.3997 104.695 11.3494C106.603 12.5638 108.715 12.9375 110.916 12.9842C111.9 12.9997 112.868 12.8908 113.836 12.6728C115.583 12.2836 117.211 11.5985 118.488 10.1973C120.19 8.34465 120.41 5.77579 119.045 3.64286L119.031 3.62729ZM114.585 9.20094C113.998 10.3842 113.103 11.1626 111.826 11.3806C111.019 11.5207 110.212 11.5051 109.434 11.256C108.143 10.8357 107.336 9.8704 106.955 8.53148C106.559 7.16142 106.573 5.77579 106.999 4.40573C107.542 2.67759 108.95 1.60333 110.667 1.58777C111.122 1.58777 111.577 1.58777 112.032 1.69675C113.734 2.11711 114.937 3.68956 115.084 5.66681C115.098 5.96262 115.113 6.24286 115.113 6.41411C115.113 7.45723 115.025 8.36022 114.599 9.20094H114.585Z" fill="#444444"/>
<path d="M66.5888 4.57735C65.9432 2.97375 64.784 1.8995 63.302 1.23004C60.25 -0.155587 57.1246 -0.264569 53.9552 0.716269C52.4585 1.16777 51.1232 1.91507 50.1255 3.22286C49.2451 4.37495 48.7902 5.6983 48.9956 7.19291C49.2597 9.06118 50.2869 10.4001 51.7689 11.3654C53.6617 12.5797 55.7746 12.9534 57.9463 12.9845C58.9294 13.0001 59.8978 12.8911 60.8662 12.6732C62.4803 12.3151 63.977 11.7079 65.2242 10.5091C66.8382 8.9522 67.3811 6.63244 66.5594 4.57735H66.5888ZM62.1868 6.52345C62.1868 7.17735 62.1428 7.81567 61.9667 8.45399C61.4092 10.3845 60.0152 11.5366 57.9023 11.4744C57.2566 11.4588 56.6257 11.3654 56.0534 11.0696C54.8356 10.4312 54.1606 9.35699 53.9258 7.98693C53.7497 6.92824 53.7644 5.86956 53.9698 4.82645C54.3367 3.08274 55.5399 1.8995 57.242 1.6504C59.0027 1.4013 60.5141 1.8528 61.5265 3.5498C62.0254 4.37495 62.1722 5.30908 62.2015 6.27435C62.2015 6.3522 62.2015 6.44561 62.2015 6.52345H62.1868Z" fill="#444444"/>
<path d="M31.4169 10.7734C30.1697 11.8321 28.7171 12.4082 27.1617 12.704C25.2835 13.0621 23.376 13.1243 21.4979 12.7351C19.6344 12.3459 18.035 11.3806 16.6997 9.9483C16.509 9.7459 16.5383 9.66806 16.7584 9.54351C17.3307 9.20099 17.9029 8.84291 18.4605 8.46926C18.6366 8.36027 18.7246 8.3447 18.8567 8.5471C20.1773 10.6645 22.0701 11.4585 24.4032 11.2561C25.0341 11.1938 25.6504 11.1004 26.2226 10.8357C27.6606 10.213 28.3796 9.02973 28.585 7.44171C28.6144 7.16147 28.453 7.22375 28.3209 7.22375C26.4721 7.25488 24.6086 7.27045 22.7598 7.30159C21.894 7.31716 21.894 7.33273 21.894 6.42973C21.894 6.1962 21.9087 5.96267 21.894 5.7447C21.8794 5.4956 21.9527 5.41776 22.2022 5.41776C23.244 5.41776 24.2711 5.41776 25.3129 5.41776V5.4956C26.3253 5.4956 27.3378 5.4956 28.3502 5.4956C28.5703 5.4956 28.629 5.48003 28.585 5.23093C28.3062 3.70518 27.4845 2.6465 26.1199 2.16387C24.007 1.40099 21.9527 1.60339 20.0452 2.8956C19.5903 3.19141 19.2529 3.62734 18.9007 4.03213C18.7686 4.18782 18.6659 4.20339 18.5045 4.09441C17.9323 3.73632 17.3747 3.37824 16.7878 3.05129C16.553 2.91117 16.5677 2.83333 16.7584 2.66207C18.035 1.50997 19.4876 0.7471 21.131 0.404585C23.9776 -0.21817 26.7949 -0.0624812 29.5241 1.07405C30.9327 1.66566 32.1212 2.58423 32.8549 4.03213C34.0434 6.36746 33.4859 9.0453 31.461 10.7579L31.4169 10.7734Z" fill="#444444"/>
<path d="M46.2516 0.933694C45.2832 0.560042 44.2708 0.45106 43.2583 0.45106C40.5144 0.419922 37.7705 0.45106 35.0266 0.419922C34.7479 0.419922 34.7185 0.513335 34.7185 0.762437C34.7185 2.67741 34.7185 4.60795 34.7185 6.52292C34.7185 8.43789 34.7185 10.3684 34.7185 12.2834C34.7185 12.5169 34.7625 12.6259 35.012 12.6103C36.2739 12.6103 37.5358 12.6103 38.8123 12.6103C39.0471 12.6103 39.0911 12.5325 39.0911 12.299C39.0911 11.0379 39.0911 9.76124 39.0911 8.50016C39.0911 8.23549 39.1498 8.15765 39.4139 8.15765C40.6025 8.15765 41.7763 8.15765 42.9648 8.14208C43.9479 8.12651 44.9164 8.04866 45.8701 7.73729C46.9413 7.39477 47.8363 6.77202 48.3059 5.65106C49.1129 3.72052 48.2325 1.69657 46.2663 0.933694H46.2516ZM42.8328 5.99357C42.4073 6.19597 41.9671 6.27381 41.5122 6.28938C40.7932 6.28938 40.0742 6.28938 39.3552 6.28938C39.1058 6.28938 39.0471 6.21154 39.0618 5.96244C39.0764 5.40196 39.0618 4.85705 39.0618 4.29657C39.0618 3.70495 39.0618 3.11333 39.0618 2.52172C39.0618 2.36603 39.0911 2.27262 39.2672 2.27262C40.2356 2.30375 41.2041 2.19477 42.1578 2.36603C42.9355 2.49058 43.6251 2.78639 43.9039 3.65824C44.2121 4.60795 43.7719 5.52651 42.8328 5.978V5.99357Z" fill="#444444"/>
<path d="M103.184 12.6103H102.23C101.027 12.6103 99.8089 12.6103 98.6057 12.6103C98.3562 12.6103 98.2242 12.5169 98.1068 12.2834C96.6541 9.37202 95.1868 6.46064 93.7195 3.54926C93.6608 3.44028 93.6315 3.30016 93.4847 3.20675C93.1766 3.87621 92.8684 4.54567 92.5603 5.21513C91.4892 7.5816 90.4033 9.94806 89.3322 12.299C89.2295 12.5169 89.1268 12.6259 88.8773 12.6103C88.2904 12.5948 87.7035 12.6103 87.0579 12.6103C87.3367 12.0032 87.6008 11.4271 87.8649 10.8511C89.4349 7.47262 91.0196 4.09417 92.5897 0.71573C92.6924 0.482197 92.8098 0.419922 93.0592 0.419922C94.2331 0.419922 95.4069 0.419922 96.5808 0.419922C96.7715 0.419922 96.8889 0.466628 96.9916 0.653455C99.0018 4.54567 101.027 8.45345 103.037 12.3457C103.081 12.4235 103.11 12.4858 103.169 12.6103H103.184Z" fill="#444444"/>
<path d="M132.985 2.00795C132.985 2.25705 132.911 2.30375 132.691 2.30375C131.341 2.30375 130.006 2.30375 128.656 2.30375C128.333 2.30375 128.245 2.36603 128.245 2.72411C128.26 5.90016 128.245 9.07621 128.26 12.2367C128.26 12.5636 128.172 12.6259 127.878 12.6259C126.675 12.6103 125.472 12.6103 124.254 12.6259C123.931 12.6259 123.873 12.5169 123.873 12.2056C123.873 9.04507 123.873 5.88459 123.873 2.72411C123.873 2.41274 123.829 2.30375 123.491 2.30375C122.156 2.31932 120.821 2.30375 119.5 2.30375C119.265 2.30375 119.177 2.24148 119.192 1.99238C119.207 1.58759 119.221 1.16723 119.192 0.762437C119.177 0.497766 119.251 0.419922 119.515 0.419922C121.716 0.419922 123.917 0.419922 126.103 0.419922C128.289 0.419922 130.446 0.419922 132.633 0.419922C132.911 0.419922 132.985 0.497766 132.97 0.778006C132.941 1.1828 132.955 1.60316 132.97 2.00795H132.985Z" fill="#444444"/>
</g>
<defs>
<clipPath id="clip0_17136_18025">
<rect width="132" height="13" fill="white" transform="translate(0.984863)"/>
</clipPath>
</defs>
</svg>
