<svg width="70" height="35" viewBox="0 0 70 35" fill="none" xmlns="http://www.w3.org/2000/svg">
<g clip-path="url(#clip0_17136_18001)">
<path d="M58.4437 22.3076C57.8221 25.0154 57.0077 27.6491 55.5075 30.029C53.4072 33.3714 50.546 35.3599 46.3561 34.9263C43.7521 34.6618 42.059 33.2339 41.1696 30.8646C40.1301 28.0828 40.3552 25.1952 40.5802 22.3182C40.6445 21.4932 40.7838 20.6893 40.9017 19.8749C40.1087 20.4355 40.0337 21.2499 39.7872 21.9692C38.7799 24.8779 37.719 27.7549 35.983 30.3357C34.3542 32.7579 32.3075 34.5878 29.2106 34.9474C25.3421 35.3917 22.6631 33.5512 21.7523 29.7857C21.0664 26.9299 21.27 24.0635 21.6344 21.1865C21.688 20.7422 21.8487 20.298 21.6772 19.8114C21.1522 19.9489 21.1629 20.4249 21.0343 20.7739C19.9305 23.8096 18.7839 26.8135 17.0051 29.5425C15.462 31.9223 13.6081 33.9849 10.6827 34.7041C6.80351 35.6455 2.20637 34.6936 1.20979 28.7809C0.749001 26.052 1.0169 23.3442 1.59556 20.647C1.73487 19.9912 2.00277 19.8008 2.66716 19.8114C5.39972 19.8431 8.13229 19.8431 10.8541 19.8114C11.5185 19.8114 11.7007 19.9066 11.5078 20.6259C11.0685 22.2653 11.3471 23.175 12.2258 23.5452C13.1366 23.9365 14.1761 23.5134 15.1405 22.2442C17.0587 19.7268 18.1196 16.7969 19.1804 13.867C20.7235 9.58325 21.9237 5.20428 23.0596 0.804162C23.2203 0.190684 23.4454 0.0108711 24.0455 0.0214483C27.121 0.0426028 30.1964 0.0637572 33.2719 0.0214483C34.1613 0.000293917 34.0863 0.423382 33.9684 0.994552C32.854 6.36778 31.7181 11.741 30.6572 17.1248C30.3465 18.7114 30.0571 20.3297 30.4429 21.9692C30.6251 22.7307 30.9251 23.3442 31.6967 23.5981C32.5432 23.8731 33.1969 23.45 33.7434 22.8788C35.4151 21.1336 36.3152 18.9547 37.2261 16.7758C39.3264 11.7198 40.8374 6.48413 42.1983 1.2061C42.434 0.307033 42.7341 -0.0208605 43.7092 0.0108711C46.6347 0.0849116 49.5494 0.05318 52.4749 0.0214483C53.1929 0.0214483 53.3857 0.12722 53.2143 0.899357C52.0463 6.18796 50.9211 11.4871 49.8066 16.7758C49.4851 18.2989 49.1637 19.822 49.2494 21.3874C49.303 22.3817 49.5387 23.323 50.6853 23.5981C51.7998 23.8731 52.6249 23.3336 53.2143 22.4346C53.4608 22.0538 53.7608 21.6624 53.8465 21.2288C54.0823 19.9806 54.7788 19.5364 56.0004 19.7903C56.1076 19.8114 56.2362 19.7903 56.3433 19.7903C58.9795 19.7903 59.0116 19.7903 58.4437 22.2865V22.3076Z" fill="#6D6D6D"/>
<path d="M69.9849 30.0921C69.9421 32.8421 67.6917 34.9999 64.8627 34.9999C61.9801 34.9999 59.7619 32.7998 59.7834 29.9546C59.8048 27.1093 62.023 24.9833 64.9484 25.015C67.8418 25.0467 70.0278 27.2468 69.9849 30.0921Z" fill="#6D6D6D"/>
</g>
<defs>
<clipPath id="clip0_17136_18001">
<rect width="69" height="35" fill="white" transform="translate(0.984863)"/>
</clipPath>
</defs>
</svg>
