<svg width="132" height="27" viewBox="0 0 132 27" fill="none" xmlns="http://www.w3.org/2000/svg">
<g clip-path="url(#clip0_17136_18004)">
<path d="M55.0267 13.1719V13.1883L55.0115 13.1719H55.0267Z" fill="white"/>
<path d="M131.985 12.3029C131.985 11.9421 131.738 11.8108 131.444 11.9913C131.135 12.2045 130.841 12.4342 130.547 12.6638C129.743 13.2707 128.908 13.8449 127.996 14.2549C127.238 14.5994 126.48 14.8455 125.645 14.7142C125.027 14.6158 124.656 14.1893 124.609 13.5332C124.578 13.1395 124.609 12.7458 124.687 12.3521C124.826 11.5812 125.104 10.8594 125.352 10.1049C125.444 9.84243 125.522 9.57997 125.537 9.30111C125.553 8.90743 125.398 8.71059 125.027 8.69419C124.81 8.69419 124.578 8.69419 124.362 8.7434C124.176 8.79261 123.991 8.82542 123.759 8.87463C124.037 8.46454 124.238 8.08726 124.377 7.66077C125.104 5.54473 124.625 2.9694 121.764 2.18204C120.697 1.88678 119.615 1.85397 118.517 1.96879C116.631 2.18204 114.899 2.83817 113.414 4.11764C112.054 5.29868 111.219 6.75859 111.296 8.69419C111.358 10.3837 112.177 11.5648 113.708 12.0569C114.806 12.4178 115.919 12.4178 117.048 12.2865C118.053 12.1717 118.996 11.8764 119.924 11.4828C119.94 11.4664 119.971 11.4336 120.001 11.4828C120.001 11.4828 119.971 11.5156 119.955 11.5156C119.367 12.1553 118.703 12.713 118.022 13.2379C116.955 14.0581 115.842 14.7634 114.559 15.1571C113.986 15.3376 113.414 15.436 112.811 15.3868C111.853 15.3212 111.219 14.747 110.739 13.9269C110.492 13.484 110.26 13.0411 109.951 12.631C109.301 11.778 108.312 11.614 107.446 12.2373C107.229 12.4014 107.028 12.5818 106.827 12.7458C106.271 13.2379 105.698 13.6972 105.049 14.0581C104.183 14.5502 103.271 14.8619 102.266 14.8127C101.616 14.7799 101.23 14.3698 101.152 13.6972C101.091 13.0575 101.214 12.4342 101.353 11.8272C101.616 10.6462 102.034 9.51436 102.312 8.34972C102.467 7.74279 102.606 7.13586 102.498 6.51254C102.42 6.11885 102.204 5.84 101.848 5.72517C101.477 5.61035 101.121 5.62675 100.781 5.82359C100.518 5.98763 100.286 6.16806 100.055 6.3649C99.1886 7.13586 98.4 8.02165 97.6114 8.87463C96.3126 10.2853 95.0601 11.7288 93.6221 12.9919C92.8335 13.6808 92.0139 14.337 91.0398 14.6978C90.8697 14.7634 90.6842 14.8127 90.4986 14.8455C89.4935 14.9931 88.8905 14.4846 88.7359 13.4184C88.5967 12.4834 88.7668 11.5648 89.0296 10.679C89.5708 8.7598 90.545 7.08665 91.7202 5.52833C91.9057 5.28228 91.8902 5.06904 91.782 4.80658C91.6738 4.56053 91.4882 4.3965 91.2563 4.28167C90.9006 4.11764 90.5141 4.08483 90.1275 4.15044C89.1533 4.31448 88.4111 4.905 87.7617 5.65956C86.2927 7.38192 85.5041 9.43234 85.2258 11.7124C85.2104 11.8764 85.1485 11.9913 85.0557 12.1225C84.4372 12.8771 83.7414 13.5332 82.9373 14.0581C82.458 14.3698 81.9632 14.6322 81.4065 14.7799C80.4015 15.0423 79.8293 14.6978 79.5201 13.648C79.4118 13.2707 79.35 12.8935 79.2881 12.5162C79.0562 11.0563 78.917 9.56357 78.6232 8.10367C78.4686 7.3163 78.2676 6.54534 77.8037 5.8728C77.4017 5.28228 76.8605 5.01983 76.1647 5.08544C75.7472 5.13465 75.3452 5.28228 74.974 5.46272C73.9071 5.98763 72.9948 6.75859 72.0825 7.54595C71.3094 8.21849 70.5981 8.97305 69.825 9.67839C69.8095 9.6948 69.794 9.74401 69.7631 9.7112C69.7322 9.67839 69.7631 9.66199 69.7631 9.62918C69.8095 9.53076 69.8404 9.43234 69.8868 9.33392C70.5517 7.89042 71.2321 6.44692 71.9124 5.00342C72.0361 4.74097 71.9897 4.57693 71.7733 4.44571C71.665 4.38009 71.5568 4.31448 71.4331 4.26527C70.5363 3.90439 69.5621 4.19966 68.9745 5.00342C68.6034 5.51193 68.2787 6.06964 68.0158 6.66017C67.2427 8.2841 66.5933 9.97365 65.9129 11.6468C65.8665 11.7616 65.8356 11.86 65.7428 11.9421C64.6914 12.8607 63.578 13.6808 62.3101 14.2549C61.4906 14.6322 60.6401 14.8783 59.7278 14.8291C59.0939 14.7963 58.7073 14.419 58.5836 13.7628C58.5063 13.3199 58.5527 12.8771 58.6145 12.4506C58.7382 11.696 59.032 11.0071 59.2949 10.3017C59.3876 10.0393 59.4804 9.77681 59.465 9.49796C59.465 9.2355 59.3413 9.08787 59.0939 9.02226C58.8465 8.95664 58.6145 9.02226 58.398 9.12068C57.9496 9.31752 57.5321 9.59638 57.1456 9.89164C56.1869 10.597 55.2436 11.3351 54.285 12.0405C53.218 12.8114 52.1047 13.5168 50.8522 13.9433C50.1255 14.1893 49.3833 14.3698 48.6101 14.2549C47.9762 14.1565 47.6051 13.7136 47.5741 13.0247C47.5587 12.4834 47.636 11.9421 47.8215 11.4336C48.7338 8.92384 50.3729 7.16867 52.7078 6.13526C53.9293 5.59394 55.1973 5.44631 56.4807 5.8564C57.2847 6.11885 57.9187 6.64376 58.5527 7.21788C58.8465 7.48034 59.1248 7.72639 59.4804 7.89042C60.3154 8.2841 61.0422 7.7756 61.0112 6.8078C60.9803 6.02043 60.5937 5.47912 60.0062 5.05263C59.3722 4.60974 58.6454 4.3965 57.9032 4.28167C56.4497 4.05202 54.9962 4.10123 53.5427 4.33088C50.8368 4.77377 48.3627 5.8564 46.2444 7.70998C44.8527 8.92384 43.7394 10.3837 43.1982 12.2537C43.1673 12.3521 43.1209 12.4014 43.0436 12.4506C42.023 13.1559 40.9716 13.7792 39.8583 14.2713C39.1006 14.6158 38.312 14.8783 37.477 14.9275C37.0595 14.9439 36.7812 14.7634 36.5802 14.3698C36.441 14.1073 36.3791 13.812 36.3328 13.5168C36.1781 12.467 36.2245 11.4336 36.2554 10.3837C36.2864 9.31752 36.3637 8.23489 36.3328 7.16867C36.3018 6.23368 36.2709 5.28228 35.8843 4.4129C35.5596 3.67475 35.0184 3.36308 34.2453 3.47791C33.6423 3.55992 33.0701 3.77317 32.5289 4.06843C31.1064 4.80658 29.8693 5.80719 28.6478 6.85701C26.6067 8.61217 24.7203 10.5314 22.8029 12.4342C22.7101 12.5326 22.6019 12.6146 22.4782 12.7458C22.4782 12.6474 22.4782 12.5982 22.4782 12.549C22.54 11.2695 22.6019 9.99006 22.6637 8.71059C22.741 6.98823 22.8493 5.26588 22.741 3.54352C22.6947 2.80537 22.6019 2.06721 22.339 1.37827C22.0452 0.623713 21.535 0.131611 20.7309 0.0495944C19.6176 -0.0652294 18.5816 0.230032 17.6538 0.902571C16.6178 1.65713 15.7519 2.62493 14.9169 3.60913C13.3861 5.41351 11.9945 7.34911 10.541 9.2191C8.93285 11.2695 7.30927 13.2871 5.46921 15.1407C4.15488 16.4694 2.71685 17.5848 1.00049 18.241V18.3558C1.00049 18.3558 1.04688 18.3886 1.06234 18.4214C1.35613 19.1924 1.92825 19.5204 2.68592 19.5532C3.95386 19.6353 5.12903 19.2744 6.22688 18.6018C7.68038 17.6997 8.80915 16.4366 9.87608 15.0915C11.2059 13.402 12.3346 11.5484 13.4789 9.7112C14.3757 8.2841 15.2262 6.8242 16.2312 5.47912C16.6642 4.905 17.0817 4.33088 17.7002 3.9536C18.1641 3.67475 18.4424 3.80597 18.5507 4.36369C18.5661 4.46211 18.597 4.57693 18.597 4.67535C18.7053 5.57754 18.628 6.47973 18.5661 7.38192C18.4115 9.80962 18.2259 12.2209 18.1486 14.6486C18.1332 15.2391 18.1332 15.8461 18.2723 16.4202C18.427 17.0763 18.8599 17.3552 19.4784 17.224C19.8495 17.1583 20.1742 16.9943 20.499 16.7975C21.6741 16.0593 22.6637 15.0915 23.6688 14.1237C25.1687 12.6638 26.6067 11.1055 28.1839 9.7276C28.756 9.2191 29.3591 8.7434 30.0549 8.43173C30.9981 8.00525 31.5702 8.34972 31.7403 9.41594C31.864 10.1705 31.8176 10.9415 31.8486 11.7124C31.8795 12.795 31.864 13.8941 32.096 14.9767C32.3898 16.371 33.1165 17.0763 34.4618 17.2404C35.5751 17.3716 36.6729 17.1419 37.7399 16.8139C39.5181 16.2562 41.1417 15.3376 42.6879 14.2877C42.7652 14.2385 42.8271 14.1401 42.9508 14.1565C42.9663 14.4846 43.0126 14.7963 43.1363 15.0915C43.6312 16.3382 44.5744 16.9451 45.765 17.1255C46.9402 17.306 48.0999 17.1255 49.2286 16.8303C51.0223 16.3382 52.5841 15.3376 54.0066 14.1237C54.3468 13.8285 54.687 13.5332 55.0272 13.2379C55.0736 13.2871 55.0426 13.3364 55.0272 13.3856C54.9653 13.8777 54.9498 14.3698 55.0117 14.8619C55.1509 16.0265 55.8467 16.8631 56.9136 17.1255C57.4548 17.2568 57.996 17.224 58.5372 17.1747C60.1299 17.0107 61.5988 16.4202 62.9905 15.6164C63.7791 15.1571 64.5213 14.6322 65.2325 14.0253C65.1552 14.2877 65.047 14.5338 64.9542 14.7634C63.9028 17.3388 62.8204 19.8813 61.9854 22.5387C61.6916 23.4901 61.3823 24.4415 61.3205 25.4421C61.2741 26.1146 61.3669 26.7379 62.0472 27.0496H62.2482C62.3719 26.984 62.4338 26.8692 62.4802 26.7543C62.6348 26.4099 62.8049 26.0654 62.9595 25.7045C64.5677 21.8989 66.2067 18.1097 68.1241 14.4518C68.9591 12.8607 69.9332 11.3679 71.2011 10.1213C71.7887 9.53076 72.4227 9.00585 73.2113 8.77621C74.1391 8.49735 74.7576 8.84182 75.0359 9.82602C75.0668 9.90804 75.0823 10.0065 75.0977 10.0885C75.2833 11.1875 75.4534 12.2701 75.6544 13.3528C75.809 14.2057 76.01 15.0423 76.4275 15.7969C76.8914 16.6498 77.5718 17.1419 78.4995 17.2076C79.0098 17.2404 79.5201 17.1583 80.0149 17.0271C81.9013 16.4858 83.494 15.4032 84.932 14.0417C85.0093 13.9597 85.0712 13.8613 85.1949 13.8285C85.2258 13.9597 85.2413 14.0745 85.2722 14.1893C85.6278 16.0265 86.8958 17.1419 88.6585 17.1747C89.9265 17.2076 91.0553 16.7155 92.1222 16.0593C93.7767 15.0259 95.1374 13.648 96.4363 12.1717C96.9929 11.532 97.5187 10.8758 98.0599 10.2197C98.0599 10.2033 98.0599 10.1705 98.1062 10.1869C98.1062 10.1869 98.1062 10.2361 98.1062 10.2525C98.0753 10.3837 98.0289 10.515 97.998 10.6462C97.6578 11.9913 97.4104 13.3528 97.565 14.7634C97.7042 15.9937 98.4464 16.8631 99.5907 17.1419C100.302 17.306 101.013 17.224 101.725 17.0927C103.209 16.8303 104.523 16.1577 105.745 15.2555C106.224 14.9111 106.688 14.5174 107.152 14.1073C107.167 14.1565 107.198 14.1893 107.198 14.2221C107.786 15.8953 108.961 16.7975 110.585 17.0763C112.255 17.3552 113.878 17.0763 115.44 16.453C117.234 15.7148 118.78 14.5502 120.187 13.1887C120.558 12.8278 120.914 12.4506 121.269 12.0897C121.316 12.1717 121.269 12.2373 121.269 12.3029C121.115 13.0739 121.084 13.8613 121.192 14.6486C121.378 16.0265 122.151 16.9123 123.372 17.1747C123.929 17.2896 124.501 17.2568 125.058 17.1747C126.929 16.9123 128.583 16.0921 130.068 14.8947C130.671 14.4026 131.227 13.8613 131.66 13.1887C131.815 12.9427 131.954 12.6802 131.939 12.3686L131.985 12.3029ZM55.0272 13.1723C55.0272 13.1723 55.0272 13.1559 55.0426 13.1395C55.0426 13.1395 55.0426 13.1559 55.0426 13.1723C55.0426 13.1723 55.0272 13.1723 55.0117 13.1723H55.0272ZM122.955 7.07025C122.599 8.21849 121.841 8.98945 120.867 9.54717C119.94 10.0885 118.95 10.3181 117.868 10.3509C117.435 10.3509 116.986 10.3017 116.553 10.1377C115.409 9.7112 114.775 8.57936 114.914 7.2835C115.084 5.77438 115.888 4.74097 117.125 4.06843C118.378 3.39589 119.708 3.23185 121.068 3.55992C122.723 3.9536 123.481 5.3643 122.939 7.08666L122.955 7.07025Z" fill="#A0A0A0"/>
<path d="M41.2188 3.87127C39.8736 3.88767 38.8066 5.03591 38.8066 6.4138C38.8066 7.84089 39.9045 8.98913 41.2343 8.97273C42.5795 8.95632 43.6465 7.82449 43.6465 6.4302C43.6465 5.0031 42.5486 3.85486 41.2343 3.87127H41.2188ZM41.2343 8.56264C40.1364 8.56264 39.2551 7.61124 39.2551 6.4302C39.2551 5.24915 40.1364 4.29776 41.2343 4.29776C42.3321 4.29776 43.2135 5.24915 43.2135 6.4302C43.2135 7.61124 42.3321 8.57904 41.2343 8.57904V8.56264Z" fill="#A0A0A0"/>
<path d="M69.8249 9.67812C69.8249 9.67812 69.7939 9.74373 69.763 9.71092C69.7321 9.67812 69.763 9.66171 69.763 9.62891C69.7785 9.62891 69.7939 9.66171 69.8249 9.67812Z" fill="white"/>
<path d="M98.122 10.2195C98.122 10.2195 98.1063 10.2031 98.0906 10.1867C98.0906 10.1703 98.0906 10.1375 98.1378 10.1539C98.1378 10.1539 98.1378 10.2031 98.1378 10.2195H98.122Z" fill="white"/>
<path d="M120.001 11.4664C120.001 11.4664 119.97 11.4992 119.955 11.4992C119.955 11.4992 119.939 11.4828 119.924 11.4664C119.939 11.45 119.97 11.4172 120.001 11.4664Z" fill="white"/>
<path d="M55.0115 13.1719H55.0267V13.1883L55.0115 13.1719Z" fill="white"/>
<path d="M55.042 13.1715C55.042 13.1715 55.0267 13.1715 55.0115 13.1715C55.0115 13.1715 55.0115 13.1551 55.0267 13.1387C55.0267 13.1387 55.0267 13.1551 55.0267 13.1715H55.042Z" fill="white"/>
<path d="M42.0382 6.52883C42.3784 6.29918 42.5021 6.02032 42.4248 5.67585C42.3475 5.29857 42.1155 5.08533 41.7135 5.00331C41.2496 4.92129 40.7857 4.9705 40.3064 4.9541C40.1209 4.9541 40.0745 5.01972 40.0745 5.20015C40.0745 6.02032 40.0745 6.84049 40.0745 7.66066C40.0745 7.8411 40.1209 7.92312 40.3064 7.90671C40.3683 7.90671 40.4301 7.90671 40.492 7.90671C40.6466 7.92312 40.7084 7.87391 40.693 7.69347C40.693 7.43102 40.693 7.15216 40.693 6.8897C40.693 6.75848 40.7239 6.70927 40.8476 6.72567C40.9249 6.72567 41.0022 6.72567 41.0795 6.72567C41.2806 6.69286 41.3888 6.77488 41.4506 6.97172C41.528 7.23417 41.6517 7.49663 41.7444 7.74268C41.7754 7.8411 41.8372 7.90671 41.9454 7.90671C42.0846 7.90671 42.2392 7.90671 42.4093 7.90671C42.2547 7.51303 42.1155 7.13575 41.9764 6.77488C41.9454 6.67646 41.9145 6.61085 42.0382 6.54523V6.52883ZM41.5434 6.20076C41.3888 6.24997 41.2342 6.24997 41.095 6.24997C40.827 6.24997 40.6981 6.10781 40.7084 5.82348C40.7084 5.4298 40.7084 5.4134 41.0795 5.4134C41.2342 5.4134 41.3888 5.4134 41.528 5.46261C41.698 5.49541 41.8063 5.62664 41.8063 5.82348C41.8063 6.02032 41.7135 6.13515 41.528 6.20076H41.5434Z" fill="#A0A0A0"/>
</g>
<defs>
<clipPath id="clip0_17136_18004">
<rect width="131" height="27" fill="white" transform="translate(0.984863)"/>
</clipPath>
</defs>
</svg>
