<svg width="20" height="20" viewBox="0 0 20 20" fill="none" xmlns="http://www.w3.org/2000/svg">
<path d="M0 2C0 0.895431 0.895431 0 2 0H17.9938C19.0984 0 19.9938 0.895431 19.9938 2V18C19.9938 19.1046 19.0984 20 17.9938 20H2C0.89543 20 0 19.1046 0 18V2Z" fill="#BCD09D"/>
<path fill-rule="evenodd" clip-rule="evenodd" d="M0 3.04492L6.98148 4.13762C7.85185 3.58513 8.88272 3.28433 10 3.28433C11.5432 3.28433 12.9321 3.86137 13.9444 4.8804C14.0741 5.00932 14.1914 5.14437 14.3025 5.27942L19.9938 6.16954V6.96144L14.8765 6.1634C15.2593 6.89391 15.463 7.71036 15.463 8.53295C15.463 9.60723 15.2222 10.6754 14.7284 11.7435L14.716 11.7742L14.5062 12.2223H14.0062C12.9815 12.2223 12.2963 12.5293 11.8519 13.0756C11.5 13.5053 11.3025 14.0824 11.2346 14.7085V14.7269L11.2222 14.8252L11.216 14.8681L11.2099 14.9541C11.1852 15.2365 11.1667 15.4697 11.1605 15.6662L20 14.2849V15.0768L0 18.2076V17.4157L8.85185 16.0345L8.84568 15.8565V15.8074V15.7828V15.746C8.83333 15.4697 8.81482 15.1935 8.78395 14.9172L8.77778 14.8558L8.76543 14.7454C8.7037 14.1131 8.5 13.5299 8.15432 13.094C7.71605 12.5477 7.03704 12.2346 6.01852 12.2285H5.49383L5.28395 11.7803C4.77778 10.6938 4.53086 9.61951 4.53086 8.53295C4.53086 7.17015 5.08025 5.85646 6.05556 4.8804C6.08642 4.84971 6.11111 4.82516 6.14198 4.79446L0 3.83068V3.04492Z" fill="white"/>
<path fill-rule="evenodd" clip-rule="evenodd" d="M9.99995 4.06396C12.7901 4.06396 14.6851 6.21252 14.6851 8.53296C14.6851 9.46605 14.4814 10.4298 14.0061 11.4489C11.2592 11.4489 10.5802 13.4194 10.4506 14.6533L10.4444 14.7331C10.4012 15.1751 10.3765 15.5311 10.3703 15.7951L9.62341 15.9117V15.8872C9.62341 15.6048 9.59254 15.2119 9.54316 14.7085V14.684C9.42588 13.4501 8.75921 11.4427 5.98761 11.4427C5.5123 10.4298 5.30859 9.45991 5.30859 8.52683C5.30859 6.21252 7.20366 4.06396 9.99995 4.06396Z" fill="#BCD09D"/>
</svg>
