<svg width="26" height="28" viewBox="0 0 26 28" fill="none" xmlns="http://www.w3.org/2000/svg">
<rect y="1" width="26" height="26" rx="2.5" fill="#6DB8E0"/>
<path fill-rule="evenodd" clip-rule="evenodd" d="M13.2125 23.6268C11.2716 23.6268 10.3697 23.3431 8.80188 22.2087C7.81021 23.485 4.66991 24.4823 4.53297 22.7759C4.53297 21.4949 4.24963 20.4124 3.92852 19.2307C3.54602 17.7748 3.11157 16.1534 3.11157 13.8041C3.11157 8.19321 7.71104 3.97203 13.1605 3.97203C18.6147 3.97203 22.8883 8.4012 22.8883 13.8561C22.9067 19.2267 18.5776 23.5981 13.2125 23.6268ZM13.2927 8.8219C10.6388 8.68482 8.57049 10.5236 8.11243 13.4071C7.73465 15.7942 8.40521 18.7013 8.9766 18.8525C9.25049 18.9187 9.93994 18.3609 10.3697 17.9308C11.0802 18.4221 11.9077 18.7173 12.7686 18.7864C15.5184 18.9188 17.8681 16.8232 18.0528 14.0736C18.1603 11.3181 16.043 8.98431 13.2927 8.82663L13.2927 8.8219Z" fill="white"/>
</svg>
