<svg width="40" height="41" viewBox="0 0 40 41" fill="none" xmlns="http://www.w3.org/2000/svg">
<path d="M26.2376 22.8251C26.7624 22.3003 26.8373 21.5507 26.3876 20.8011C26.0128 20.2014 25.3381 19.9016 24.5885 20.0515C24.2887 20.1265 23.9888 20.2764 23.689 20.5013C21.3652 22.0755 18.2168 22.0005 15.893 20.4263C15.7431 20.3513 15.5932 20.2764 15.4433 20.2014C14.6187 19.8266 13.7941 19.9765 13.3444 20.7262C12.8196 21.4758 12.8946 22.3003 13.5692 22.975C13.7192 23.1249 13.8691 23.1999 13.944 23.3498L14.019 23.4247C15.0685 24.2493 16.3428 24.774 17.9919 24.9989L17.0174 25.9734C16.1929 26.798 15.2933 27.6975 14.4688 28.5221C14.2439 28.747 13.944 29.1218 13.944 29.6465C13.944 30.3212 14.3188 30.9958 14.9935 31.2957C15.2184 31.4456 15.4433 31.4456 15.6681 31.4456C16.0429 31.4456 16.4927 31.2957 16.7926 30.9208C17.917 29.7964 18.8165 28.8969 19.716 27.9974C19.791 27.9224 19.791 27.9224 19.791 27.9224C19.791 27.9224 19.866 27.9224 19.866 27.9974C20.4656 28.672 21.1403 29.2717 21.74 29.9464C22.0398 30.2462 22.3397 30.546 22.6395 30.8459C23.0143 31.2207 23.3142 31.3706 23.7639 31.3706C24.4386 31.4456 25.1882 30.9958 25.488 30.3212C25.7879 29.7215 25.638 28.9719 25.1132 28.5221C24.3636 27.7725 23.614 26.9479 22.7894 26.1983L21.5151 24.924C22.1898 24.849 22.9394 24.6991 23.614 24.3992C24.7384 24.0244 25.563 23.4997 26.2376 22.8251Z" fill="#98A1A3"/>
<path d="M19.791 20.7261C23.0143 20.7261 25.638 18.1775 25.638 14.9541C25.638 13.38 25.0383 11.8807 23.9138 10.7563C22.7894 9.63192 21.3652 9.03223 19.866 9.03223C16.6426 9.03223 14.094 11.6559 14.019 14.8042C14.019 16.3784 14.6187 17.8027 15.7431 18.9271C16.7926 20.1265 18.2168 20.7261 19.791 20.7261ZM18.1419 13.23C18.5916 12.7803 19.1913 12.5554 19.791 12.5554C21.1403 12.5554 22.1148 13.6048 22.1148 14.8792C22.1148 16.2285 21.0653 17.203 19.791 17.203C18.4417 17.203 17.4672 16.1535 17.4672 14.8792C17.4672 14.2795 17.6921 13.6798 18.1419 13.23Z" fill="#98A1A3"/>
<path d="M26.2376 22.8251C26.7624 22.3003 26.8373 21.5507 26.3876 20.8011C26.0128 20.2014 25.3381 19.9016 24.5885 20.0515C24.2887 20.1265 23.9888 20.2764 23.689 20.5013C21.3652 22.0755 18.2168 22.0005 15.893 20.4263C15.7431 20.3513 15.5932 20.2764 15.4433 20.2014C14.6187 19.8266 13.7941 19.9765 13.3444 20.7262C12.8196 21.4758 12.8946 22.3003 13.5692 22.975C13.7192 23.1249 13.8691 23.1999 13.944 23.3498L14.019 23.4247C15.0685 24.2493 16.3428 24.774 17.9919 24.9989L17.0174 25.9734C16.1929 26.798 15.2933 27.6975 14.4688 28.5221C14.2439 28.747 13.944 29.1218 13.944 29.6465C13.944 30.3212 14.3188 30.9958 14.9935 31.2957C15.2184 31.4456 15.4433 31.4456 15.6681 31.4456C16.0429 31.4456 16.4927 31.2957 16.7926 30.9208C17.917 29.7964 18.8165 28.8969 19.716 27.9974C19.791 27.9224 19.791 27.9224 19.791 27.9224C19.791 27.9224 19.866 27.9224 19.866 27.9974C20.4656 28.672 21.1403 29.2717 21.74 29.9464C22.0398 30.2462 22.3397 30.546 22.6395 30.8459C23.0143 31.2207 23.3142 31.3706 23.7639 31.3706C24.4386 31.4456 25.1882 30.9958 25.488 30.3212C25.7879 29.7215 25.638 28.9719 25.1132 28.5221C24.3636 27.7725 23.614 26.9479 22.7894 26.1983L21.5151 24.924C22.1898 24.849 22.9394 24.6991 23.614 24.3992C24.7384 24.0244 25.563 23.4997 26.2376 22.8251Z" fill="#98A1A3"/>
</svg>
