<svg width="20" height="20" viewBox="0 0 20 20" fill="none" xmlns="http://www.w3.org/2000/svg">
<path fill-rule="evenodd" clip-rule="evenodd" d="M19.5752 10.0317C19.5752 4.6262 15.1933 0.244751 9.78761 0.244751C4.38195 0.244751 0 4.62648 0 10.0317C0 15.4369 4.38209 19.8193 9.78761 19.8193C15.1931 19.8193 19.5752 15.4372 19.5752 10.0317Z" fill="#BCD09D"/>
<path fill-rule="evenodd" clip-rule="evenodd" d="M11.093 5.79073H10.1958C8.52388 5.79073 7.6673 6.64702 7.6673 7.87079C7.6673 9.25738 8.27901 9.90972 9.50264 10.7659L10.5222 11.4594L7.58597 15.8636H5.38379L8.03443 11.9485C6.5253 10.8476 5.66915 9.78718 5.66915 8.03361C5.66915 5.79073 7.21884 4.28174 10.1958 4.28174H13.132V15.9046H11.093V5.79073Z" fill="white"/>
</svg>
