<svg width="26" height="26" viewBox="0 0 26 26" fill="none" xmlns="http://www.w3.org/2000/svg">
<g clip-path="url(#clip0_18755_24981)">
<path d="M13 26C20.1797 26 26 20.1797 26 13C26 5.8203 20.1797 0 13 0C5.8203 0 0 5.8203 0 13C0 20.1797 5.8203 26 13 26Z" fill="#6DB8E0"/>
<path d="M8.7998 13.9503L10.3421 18.2193C10.3421 18.2193 10.535 18.6187 10.7415 18.6187C10.9479 18.6187 14.0191 15.4237 14.0191 15.4237L17.4343 8.82732L8.85484 12.8483L8.7998 13.9503Z" fill="#C8DAEA"/>
<path d="M10.8447 15.0451L10.5486 18.1918C10.5486 18.1918 10.4247 19.1559 11.3887 18.1918C12.3526 17.2276 13.2753 16.4841 13.2753 16.4841" fill="#A9C6D8"/>
<path d="M8.82773 14.1026L5.65508 13.0689C5.65508 13.0689 5.27591 12.9151 5.398 12.5662C5.42314 12.4943 5.47383 12.4331 5.6255 12.3279C6.32848 11.8379 18.637 7.4139 18.637 7.4139C18.637 7.4139 18.9845 7.29679 19.1895 7.37468C19.2402 7.39038 19.2858 7.41926 19.3217 7.45837C19.3576 7.49749 19.3824 7.54544 19.3937 7.5973C19.4158 7.68892 19.4251 7.78317 19.4212 7.87735C19.4202 7.95881 19.4104 8.03432 19.4029 8.15273C19.3279 9.36227 17.0846 18.3895 17.0846 18.3895C17.0846 18.3895 16.9503 18.9177 16.4695 18.9358C16.3513 18.9396 16.2335 18.9196 16.1233 18.8769C16.013 18.8343 15.9124 18.7699 15.8276 18.6875C14.8839 17.8758 11.6222 15.6837 10.9014 15.2017C10.8852 15.1906 10.8715 15.1761 10.8613 15.1593C10.8511 15.1425 10.8446 15.1237 10.8423 15.1042C10.8322 15.0533 10.8875 14.9904 10.8875 14.9904C10.8875 14.9904 16.567 9.94207 16.7181 9.4121C16.7298 9.37105 16.6856 9.35079 16.6262 9.36877C16.249 9.50755 9.70978 13.6371 8.98806 14.0929C8.93611 14.1086 8.8812 14.1119 8.82773 14.1026Z" fill="white"/>
</g>
<defs>
<clipPath id="clip0_18755_24981">
<rect width="26" height="26" fill="white"/>
</clipPath>
</defs>
</svg>
