<svg width="21" height="21" viewBox="0 0 21 21" fill="none" xmlns="http://www.w3.org/2000/svg">
<g clip-path="url(#clip0_18764_12333)">
<path d="M0.5 10.4213C0.5 5.89629 0.5 3.63316 1.90625 2.22754C3.3125 0.821914 5.575 0.821289 10.1 0.821289H10.9C15.425 0.821289 17.6881 0.821289 19.0938 2.22754C20.4994 3.63379 20.5 5.89629 20.5 10.4213V11.2213C20.5 15.7463 20.5 18.0094 19.0938 19.415C17.6875 20.8207 15.425 20.8213 10.9 20.8213H10.1C5.575 20.8213 3.31188 20.8213 1.90625 19.415C0.500625 18.0088 0.5 15.7463 0.5 11.2213V10.4213Z" fill="#6DB8E0"/>
<path d="M11.1825 15.4044C6.66995 15.4044 3.93245 12.2738 3.82495 7.07129H6.11058C6.18183 10.8932 7.91995 12.5125 9.25308 12.8457V7.07129H11.4431V10.3694C12.7287 10.2269 14.0743 8.72691 14.5268 7.07129H16.6831C16.3375 9.10691 14.8725 10.6069 13.8375 11.2257C14.8737 11.7263 16.54 13.0357 17.1831 15.4044H14.8137C14.3137 13.8213 13.0875 12.595 11.4443 12.4282V15.4044H11.1825Z" fill="white"/>
</g>
<defs>
<clipPath id="clip0_18764_12333">
<rect width="20" height="20" fill="white" transform="translate(0.5 0.821289)"/>
</clipPath>
</defs>
</svg>
