<svg width="40" height="41" viewBox="0 0 40 41" fill="none" xmlns="http://www.w3.org/2000/svg">
<path d="M27.9268 12.0947C25.9512 10.126 23.3171 9.03223 20.5366 9.03223C14.7561 9.03223 10.0732 13.6989 10.0732 19.4593C10.0732 21.2822 10.5854 23.1051 11.4634 24.6364L10 30.0322L15.561 28.5739C17.0976 29.376 18.7805 29.8135 20.5366 29.8135C26.3171 29.8135 31 25.1468 31 19.3864C30.9268 16.6885 29.9024 14.0635 27.9268 12.0947ZM25.5854 23.1781C25.3659 23.7614 24.3415 24.3447 23.8293 24.4176C23.3902 24.4906 22.8049 24.4906 22.2195 24.3447C21.8537 24.1989 21.3415 24.0531 20.7561 23.7614C18.122 22.6676 16.439 20.0426 16.2927 19.8239C16.1463 19.6781 15.1951 18.4385 15.1951 17.126C15.1951 15.8135 15.8537 15.2301 16.0732 14.9385C16.2927 14.6468 16.5854 14.6468 16.8049 14.6468C16.9512 14.6468 17.1707 14.6468 17.3171 14.6468C17.4634 14.6468 17.6829 14.5739 17.9024 15.0843C18.122 15.5947 18.6341 16.9072 18.7073 16.9801C18.7805 17.126 18.7805 17.2718 18.7073 17.4176C18.6341 17.5635 18.561 17.7093 18.4146 17.8551C18.2683 18.001 18.1219 18.2197 18.0488 18.2926C17.9024 18.4385 17.7561 18.5843 17.9024 18.8031C18.0488 19.0947 18.561 19.8968 19.3659 20.626C20.3902 21.501 21.1951 21.7926 21.4878 21.9385C21.7805 22.0843 21.9268 22.0114 22.0732 21.8656C22.2195 21.7197 22.7317 21.1364 22.878 20.8447C23.0244 20.5531 23.2439 20.626 23.4634 20.6989C23.6829 20.7718 25 21.4281 25.2195 21.5739C25.5122 21.7197 25.6585 21.7926 25.7317 21.8656C25.8049 22.0843 25.8049 22.5947 25.5854 23.1781Z" fill="#98A1A3"/>
</svg>
