<svg width="26" height="26" viewBox="0 0 26 26" fill="none" xmlns="http://www.w3.org/2000/svg">
<g clip-path="url(#clip0_18755_24975)">
<path d="M0 26L1.82849 19.324C0.698872 17.3655 0.10552 15.1439 0.108249 12.883C0.111226 5.77922 5.8922 0 12.9961 0C16.4435 0.0017516 19.6792 1.3433 22.1127 3.77854C24.5462 6.21379 25.8851 9.45074 25.8839 12.8933C25.8807 19.9966 20.0989 25.7768 12.996 25.7768H12.9904C10.8336 25.776 8.71437 25.2349 6.83193 24.2085L0 26Z" fill="#BCD09D"/>
<path d="M13.0001 2.17636C7.09145 2.17636 2.28629 6.97976 2.28419 12.8839C2.28128 14.9 2.84901 16.8757 3.92176 18.5827L4.17662 18.9878L3.0943 22.9391L7.14855 21.876L7.54003 22.108C9.18426 23.0838 11.0695 23.5998 12.9921 23.6008H12.9961C18.9002 23.6008 23.7053 18.7969 23.7076 12.8925C23.7121 11.4851 23.4373 10.0909 22.8993 8.79054C22.3613 7.49014 21.5706 6.30938 20.5731 5.31662C19.5812 4.31844 18.4011 3.52692 17.1012 2.98789C15.8013 2.44886 14.4073 2.17303 13.0001 2.17636Z" fill="#BCD09D"/>
<path fill-rule="evenodd" clip-rule="evenodd" d="M9.77495 7.49702C9.53358 6.96086 9.2796 6.95 9.05031 6.94071L8.43305 6.93318C8.21831 6.93318 7.86939 7.01376 7.57442 7.33605C7.27945 7.65834 6.44727 8.43728 6.44727 10.0216C6.44727 11.6059 7.60122 13.1368 7.76201 13.3519C7.92281 13.567 9.98969 16.9218 13.2629 18.2126C15.983 19.2853 16.5365 19.0719 17.1271 19.0183C17.7177 18.9647 19.0323 18.2394 19.3005 17.4874C19.5687 16.7355 19.5688 16.0912 19.4884 15.9565C19.408 15.8218 19.1933 15.7418 18.871 15.5806C18.5487 15.4195 16.9658 14.6406 16.6706 14.533C16.3755 14.4255 16.1609 14.372 15.946 14.6943C15.7311 15.0166 15.1147 15.7416 14.9267 15.9565C14.7388 16.1715 14.5512 16.1984 14.2289 16.0375C13.9066 15.8765 12.8697 15.5363 11.6393 14.4393C10.6821 13.5857 10.0359 12.5316 9.84782 12.2095C9.65969 11.8874 9.82785 11.7129 9.98935 11.5525C10.1339 11.4082 10.3113 11.1764 10.4726 10.9885C10.6339 10.8005 10.687 10.6662 10.7942 10.4516C10.9014 10.237 10.848 10.0486 10.7674 9.8876C10.6868 9.72663 10.0612 8.1339 9.77495 7.49702Z" fill="white"/>
</g>
<defs>
<clipPath id="clip0_18755_24975">
<rect width="26" height="26" fill="white"/>
</clipPath>
</defs>
</svg>
