<svg width="101" height="37" viewBox="0 0 101 37" fill="none" xmlns="http://www.w3.org/2000/svg">
<g clip-path="url(#clip0_18758_5791)">
<path d="M50.7713 17.1481C50.0813 16.8827 49.1788 16.8032 48.1967 16.8032H42.7285V15.1044H52.1251V12.1846H38.8796V24.8194H47.8516C49.0992 24.8194 50.028 24.7133 50.7184 24.4476C52.1783 23.8903 53.1604 22.5366 53.1604 20.7581C53.1604 18.9533 52.2313 17.7056 50.7713 17.1481ZM48.8602 21.5279C48.648 21.6076 48.356 21.634 47.9842 21.634H42.7285V19.6167H47.9842C48.409 19.6167 48.754 19.6434 49.0195 19.776C49.338 19.9353 49.4973 20.2273 49.4973 20.5988C49.4973 20.9705 49.3115 21.3687 48.8602 21.5279Z" fill="#333333"/>
<path d="M63.9521 12.1846H58.3248L53.1487 24.8194H57.5019L58.2186 22.9878H64.0582L64.8015 24.8194H69.1283L63.9521 12.1846ZM59.1741 20.2007L61.0058 15.1044H61.2977L63.1292 20.2007H59.1741Z" fill="#333333"/>
<path d="M74.0821 20.1213V24.8195H70.2334V12.1846H74.0821V16.8033H80.2669V12.1846H84.1158V24.8195H80.2669V20.1213H74.0821Z" fill="#333333"/>
<path d="M90.2081 20.0417V24.8195H86.3591V12.1846H90.2081V16.936H91.2698L95.915 12.1846H100.746L94.5877 18.2366L100.985 24.8195H95.8618L91.2698 20.0417H90.2081Z" fill="#333333"/>
<path d="M0.984863 4.81543H31.5112V19.1153C31.5112 23.051 29.4116 26.688 26.0034 28.656L16.2481 34.2891L6.49272 28.656C3.08441 26.688 0.984867 23.051 0.984867 19.1153L0.984863 4.81543Z" fill="#FFDD2D"/>
<path fill-rule="evenodd" clip-rule="evenodd" d="M9.40601 12.1846V16.9295C10.0548 16.1968 11.2346 15.701 12.5835 15.701H14.0493V21.2169C14.0493 22.6844 13.6505 24.1213 13.059 24.8278H19.4351C18.8447 24.1206 18.447 22.6854 18.447 21.2197V15.701H19.9128C21.2617 15.701 22.4414 16.1968 23.0902 16.9295V12.1846H9.40601Z" fill="#333333"/>
</g>
<defs>
<clipPath id="clip0_18758_5791">
<rect width="100" height="35.7895" fill="white" transform="translate(0.984863 0.605469)"/>
</clipPath>
</defs>
</svg>
