<svg width="115" height="23" viewBox="0 0 115 23" fill="none" xmlns="http://www.w3.org/2000/svg">
<g clip-path="url(#clip0_17136_18014)">
<path d="M17.5584 21.6556C13.3098 24.0052 7.79795 23.1959 4.37859 19.7367C0.806117 16.1079 -0.0359646 10.5733 2.27338 6.08293C4.49341 1.76227 9.04831 -0.195731 12.2508 0.0131229C12.2508 1.29235 12.2508 2.58463 12.2253 3.87691C12.2253 3.98134 11.9446 4.15103 11.7787 4.16409C10.3242 4.25546 9.03555 4.76454 7.8745 5.65217C4.49341 8.23673 4.09789 13.432 7.03242 16.5387C8.64003 18.2356 10.6176 19.0319 12.8632 18.823C15.9381 18.5228 18.3495 16.4995 19.1533 13.432C19.3192 12.8315 19.3702 12.1919 19.485 11.5262H23.4403C23.6189 15.0375 21.6285 19.3843 17.5329 21.6556H17.5584Z" fill="#4D5556"/>
<path d="M67.0373 6.61758C66.1697 10.4683 65.3276 14.3321 64.4855 18.1959C64.4345 18.4439 64.3962 18.6789 64.0517 18.6789C62.9162 18.6789 61.7806 18.6789 60.6451 18.6789C60.5813 18.6789 60.5175 18.6528 60.3899 18.6267C61.1044 15.4025 61.8062 12.2305 62.5206 9.01939H58.642C58.323 10.4161 57.9913 11.7998 57.6978 13.1965C57.3278 14.9065 56.9706 16.6295 56.5878 18.3395C56.5495 18.4961 56.3199 18.705 56.1795 18.705C55.044 18.7441 53.9085 18.7441 52.7729 18.7572C52.3902 18.7572 52.4667 18.5222 52.5305 18.2742C52.9643 16.3945 53.4109 14.5018 53.8191 12.6091C54.2529 10.638 54.6612 8.66695 55.0567 6.68284C55.1461 6.25208 55.3119 6.12155 55.733 6.12155C59.3565 6.12155 62.9927 6.1085 66.6162 6.06934C67.05 6.06934 67.1266 6.18682 67.0245 6.61758H67.0373Z" fill="#4D5556"/>
<path d="M41.5579 9.25513C41.4303 7.54515 40.3969 6.48782 38.802 6.05706C38.2023 5.90042 37.5516 5.83516 36.9265 5.83516C34.9871 5.80905 33.1371 6.2137 31.6443 7.57125C29.386 9.63368 28.6332 12.3618 28.7736 15.3249C28.8629 17.309 29.9729 18.4186 31.8612 18.8102C32.4098 18.9277 32.984 18.9407 33.5454 19.006C33.5454 18.9799 33.5454 18.9538 33.5454 18.9277C33.7878 18.9277 34.0302 18.9407 34.2726 18.9277C35.9185 18.8102 37.5006 18.4316 38.751 17.2568C41.0476 15.103 41.8003 12.3227 41.5579 9.24208V9.25513ZM36.5437 14.8942C36.2375 15.5338 35.8037 16.0559 35.1275 16.33C33.9792 16.813 32.8692 16.2256 32.8181 14.9986C32.7416 13.0406 33.1499 11.174 34.1195 9.47704C34.5278 8.74605 35.1913 8.32835 36.0461 8.31529C36.952 8.28919 37.4878 8.733 37.6282 9.64673C37.6665 9.86864 37.6537 10.1036 37.6792 10.4038C37.5389 11.918 37.2454 13.4453 36.5437 14.8811V14.8942Z" fill="#4D5556"/>
<path d="M79.1198 11.1606C79.056 8.23664 77.4229 6.7355 74.5522 6.7355C73.8759 6.7355 73.187 6.83993 72.5107 6.9052C72.9828 5.62597 74.1056 4.88193 75.5601 4.81666C76.466 4.7775 77.3591 4.64697 78.265 4.52949C78.4053 4.51643 78.5839 4.32063 78.6222 4.17705C78.7498 3.62881 78.8136 3.08056 78.9029 2.49316C77.8567 2.57148 76.8743 2.68896 75.8918 2.71507C73.7994 2.78034 72.179 3.75934 71.018 5.46933C69.0021 8.41938 68.1345 11.748 68.3131 15.3246C68.3896 16.7344 69.0276 17.9222 70.3545 18.5357C72.2811 19.4234 75.1391 19.3059 76.8998 17.4392C78.5457 15.6901 79.1836 13.5102 79.1198 11.1606ZM75.2539 16.1078C74.3353 17.4523 72.5618 17.7656 71.4518 16.878C70.7117 16.2906 70.5969 15.429 70.5842 14.4109C70.699 12.9489 70.9924 11.3955 71.8218 10.0119C72.5235 8.85014 73.5187 8.22358 74.9094 8.39328C75.8153 8.51076 76.3639 9.059 76.6318 9.92052C76.6956 10.1424 76.7467 10.3774 76.7467 10.5993C76.7977 12.5834 76.3639 14.4631 75.2539 16.0948V16.1078Z" fill="#4D5556"/>
<path d="M17.278 11.4743C17.278 14.3069 15.058 16.5912 12.2765 16.5912C9.49511 16.5912 7.28783 14.3069 7.30059 11.4612C7.30059 8.65477 9.54614 6.38349 12.302 6.39654C15.0452 6.39654 17.278 8.66782 17.2907 11.4873L17.278 11.4743Z" fill="#4D5556"/>
<path d="M91.9297 6.70934C90.1562 6.7485 88.3572 6.64408 86.5965 6.85293C82.7434 7.29674 80.0895 10.5992 80.2554 14.5675C80.332 16.3949 81.3527 17.8438 82.9858 18.4051C83.9682 18.7445 84.9634 18.7576 85.9458 18.4051C86.4945 18.2093 87.0048 17.9091 87.5534 17.648C87.5407 17.7655 87.5407 17.883 87.5024 17.9874C87.3748 18.4182 87.4896 18.614 87.9617 18.5618C88.4083 18.5226 88.8676 18.5226 89.3269 18.5226C89.6331 18.5226 89.7735 18.4051 89.8373 18.0788C90.5645 14.5283 91.3045 10.9908 92.0446 7.45338C92.0956 7.23148 92.1211 7.00957 92.1721 6.77461C92.0573 6.73545 92.0063 6.69629 91.9425 6.69629L91.9297 6.70934ZM88.4848 13.1577C88.3573 13.7451 88.1786 14.3194 88.1148 14.9068C88.0255 15.7945 87.4514 16.2383 86.7496 16.5385C86.0607 16.8387 85.3207 16.9301 84.5551 16.7735C83.5344 16.5516 82.7561 15.5856 82.6668 14.3978C82.4754 11.761 84.2999 8.57597 87.8214 8.41933C88.37 8.39322 88.9186 8.41933 89.5055 8.41933C89.1483 10.0379 88.8166 11.6043 88.4721 13.1707L88.4848 13.1577Z" fill="#4D5556"/>
<path d="M103.872 6.64453C103.872 6.84033 103.872 7.01002 103.834 7.16666C103.081 10.8477 102.315 14.5157 101.537 18.1967C101.499 18.3534 101.359 18.5883 101.256 18.5883C100.516 18.6275 99.7765 18.6014 98.9599 18.6014C99.3554 16.8653 99.7382 15.1423 100.134 13.3801C99.9678 13.354 99.8658 13.3148 99.7509 13.3148C98.4113 13.3148 97.0588 13.3148 95.7191 13.3148C95.4002 13.3148 95.2726 13.4192 95.2088 13.7456C94.9281 15.1945 94.6219 16.6303 94.354 18.0793C94.2774 18.497 94.0988 18.6406 93.716 18.6275C93.0908 18.6145 92.4657 18.6275 91.7639 18.6275C91.866 18.1576 91.9553 17.7268 92.0446 17.2961C92.7081 14.0197 93.3715 10.7433 94.0605 7.47995C94.086 7.32331 94.2136 7.1014 94.3284 7.07529C95.0812 6.91865 95.8467 6.80117 96.7143 6.65758C96.3954 8.26315 96.0892 9.76428 95.7702 11.3046H100.593C100.746 10.4431 100.912 9.60764 101.052 8.77223C101.129 8.32841 101.167 7.8846 101.269 7.45384C101.308 7.2972 101.461 7.07529 101.588 7.04918C102.315 6.89254 103.043 6.78812 103.859 6.64453H103.872Z" fill="#4D5556"/>
<path d="M53.8062 6.1346C53.6021 6.93086 53.4235 7.66184 53.1938 8.37978C53.1428 8.52337 52.8493 8.6539 52.6579 8.6539C51.9179 8.68001 51.1652 8.68001 50.4252 8.6539C50.1062 8.6539 49.9786 8.77138 49.9148 9.08466C49.2769 12.1261 48.6134 15.1675 47.9755 18.2089C47.8989 18.6005 47.7203 18.7311 47.3503 18.718C46.3423 18.718 45.3471 18.718 44.3392 18.7441C43.9564 18.7441 43.8799 18.6267 43.9692 18.2351C44.6837 15.1806 45.3854 12.113 46.0872 9.0455C46.1127 8.95413 46.1127 8.8497 46.1382 8.66695H42.9485C43.1144 7.98818 43.293 7.37467 43.4206 6.74811C43.5226 6.23903 43.7268 6.06934 44.2754 6.08239C47.2992 6.1085 50.3358 6.08239 53.3597 6.06934C53.5 6.06934 53.6276 6.09544 53.8318 6.1085L53.8062 6.1346Z" fill="#4D5556"/>
<path d="M114.985 6.83997C114.819 7.06188 114.743 7.20547 114.628 7.30989C113.135 8.69355 111.655 10.0772 110.149 11.4348C109.881 11.6697 109.881 11.8525 110.035 12.1396C111.055 14.0846 112.05 16.0295 113.046 17.9875C113.339 18.5488 113.301 18.6141 112.663 18.6271C112.127 18.6402 111.591 18.6271 111.055 18.6663C110.66 18.7055 110.481 18.5358 110.328 18.1833C109.422 16.1992 108.491 14.2412 107.559 12.2702C107.521 12.2049 107.483 12.1266 107.381 11.9569C107.138 13.1056 106.909 14.1368 106.692 15.1811C106.488 16.1862 106.309 17.1913 106.092 18.1964C106.054 18.353 105.913 18.588 105.824 18.601C105.084 18.6402 104.344 18.6141 103.54 18.6141C103.732 17.7787 103.923 16.9824 104.089 16.1862C104.676 13.2883 105.25 10.3774 105.837 7.47959C105.862 7.336 105.964 7.11409 106.067 7.10104C106.832 6.93135 107.61 6.81387 108.503 6.65723C108.172 8.30195 107.853 9.8553 107.547 11.4217C107.572 11.4478 107.61 11.4609 107.636 11.487C108.338 10.7951 109.065 10.1033 109.754 9.39843C110.468 8.6805 111.145 7.91035 111.872 7.20547C112.076 7.00967 112.42 6.86608 112.714 6.85303C113.416 6.80081 114.13 6.83997 114.985 6.83997Z" fill="#4D5556"/>
<path d="M21.4882 4.99924C21.4882 6.63091 20.225 7.92319 18.6174 7.92319C17.0226 7.92319 15.7722 6.64396 15.7722 4.98619C15.7722 3.39368 17.0353 2.08834 18.6047 2.07529C20.174 2.06224 21.4882 3.38063 21.4882 4.99924Z" fill="#4D5556"/>
</g>
<defs>
<clipPath id="clip0_17136_18014">
<rect width="114" height="23" fill="white" transform="translate(0.984863)"/>
</clipPath>
</defs>
</svg>
