<svg width="20" height="20" viewBox="0 0 20 20" fill="none" xmlns="http://www.w3.org/2000/svg">
<g clip-path="url(#clip0_17595_24701)">
<path fill-rule="evenodd" clip-rule="evenodd" d="M19.5752 9.99979C19.5752 4.59434 15.1933 0.212891 9.78761 0.212891C4.38195 0.212891 0 4.59462 0 9.99979C0 15.405 4.38209 19.7874 9.78761 19.7874C15.1931 19.7874 19.5752 15.4054 19.5752 9.99979Z" fill="#BCD09D"/>
<path fill-rule="evenodd" clip-rule="evenodd" d="M11.093 5.75899H10.1958C8.52388 5.75899 7.6673 6.61528 7.6673 7.83905C7.6673 9.22564 8.27901 9.87798 9.50264 10.7341L10.5222 11.4277L7.58597 15.8319H5.38379L8.03443 11.9168C6.5253 10.8159 5.66915 9.75544 5.66915 8.00187C5.66915 5.75899 7.21884 4.25 10.1958 4.25H13.132V15.8729H11.093V5.75899Z" fill="white"/>
</g>
<defs>
<clipPath id="clip0_17595_24701">
<rect width="19.5752" height="19.5745" fill="white" transform="translate(0 0.212891)"/>
</clipPath>
</defs>
</svg>
