<svg width="16" height="16" viewBox="0 0 16 16" fill="none" xmlns="http://www.w3.org/2000/svg">
<g opacity="0.95">
<g opacity="0.9">
<path fill-rule="evenodd" clip-rule="evenodd" d="M12.7976 7.96328C12.7904 8.40008 12.436 8.8 11.9984 8.8H8.716C7.8784 8.8 7.2 8.0216 7.2 7.1832V3.90078C7.2 3.45918 7.55759 3.10078 7.99919 3.10078C8.44159 3.10078 8.8 3.45918 8.8 3.90078V6.30078C8.8 6.74318 9.1568 7.2 9.5984 7.2H11.9984C12.436 7.2 12.7904 7.52808 12.7976 7.96328ZM12.7976 7.96328C12.7976 7.95928 12.8 7.95519 12.8 7.95039V7.9752C12.8 7.9712 12.7976 7.96728 12.7976 7.96328ZM14.4 13.6C14.4 14.0416 14.0416 14.4 13.6 14.4H2.4C1.9584 14.4 1.6 14.0416 1.6 13.6V2.4C1.6 1.9584 1.9584 1.6 2.4 1.6H13.6C14.0416 1.6 14.4 1.9584 14.4 2.4V13.6ZM14.4 0H1.6C0.7168 0 0 0.7168 0 1.6V14.4C0 15.284 0.7168 16 1.6 16H14.4C15.284 16 16 15.284 16 14.4V1.6C16 0.7168 15.284 0 14.4 0Z" fill="#6DB8E0"/>
</g>
</g>
</svg>
