<svg width="17" height="17" viewBox="0 0 17 17" fill="none" xmlns="http://www.w3.org/2000/svg">
<path d="M8.01785 0.778729C8.22847 0.290878 8.92192 0.29088 9.13254 0.778731L10.9491 4.9864C11.037 5.18988 11.2293 5.32924 11.4504 5.3497L16.0236 5.77278C16.5538 5.82183 16.7681 6.47968 16.368 6.83024L12.9176 9.85381C12.7507 10 12.6773 10.2255 12.7261 10.4416L13.7359 14.9108C13.853 15.429 13.292 15.8355 12.8341 15.5643L8.88502 13.2253C8.69404 13.1122 8.45636 13.1122 8.26537 13.2253L4.31629 15.5643C3.85842 15.8355 3.29741 15.429 3.41449 14.9108L4.42429 10.4416C4.47312 10.2255 4.39968 10 4.23281 9.85381L0.782343 6.83024C0.382284 6.47968 0.59657 5.82183 1.1268 5.77278L5.69997 5.3497C5.92114 5.32924 6.11342 5.18988 6.20127 4.9864L8.01785 0.778729Z" fill="#BCD09D"/>
</svg>
