<svg width="42" height="42" viewBox="0 0 42 42" fill="none" xmlns="http://www.w3.org/2000/svg">
<path d="M0 20.16C0 10.6575 0 5.90494 2.95312 2.95312C5.90625 0.0013124 10.6575 0 20.16 0H21.84C31.3425 0 36.0951 0 39.0469 2.95312C41.9987 5.90625 42 10.6575 42 20.16V21.84C42 31.3425 42 36.0951 39.0469 39.0469C36.0938 41.9987 31.3425 42 21.84 42H20.16C10.6575 42 5.90494 42 2.95312 39.0469C0.0013124 36.0938 0 31.3425 0 21.84V20.16Z" fill="#6DB8E0"/>
<path d="M22.4329 30.6246C12.9567 30.6246 7.20793 24.0503 6.98218 13.125H11.782C11.9316 21.1509 15.5817 24.5516 18.3812 25.2512V13.125H22.9802V20.0511C25.6801 19.7518 28.5059 16.6018 29.4561 13.125H33.9842C33.2584 17.3998 30.1819 20.5498 28.0084 21.8492C30.1846 22.9005 33.6837 25.6502 35.0342 30.6246H30.0586C29.0086 27.3 26.4334 24.7249 22.9829 24.3744V30.6246H22.4329Z" fill="white"/>
</svg>
